<mxfile host="app.diagrams.net" agent="Mozilla/5.0 (Macintosh; Intel Mac OS X 10_15_7) AppleWebKit/537.36 (KHTML, like Gecko) Chrome/127.0.0.0 Safari/537.36" version="24.7.7">
  <diagram name="Page-1" id="AIieeGBtnhcf2-NR_Vec">
    <mxGraphModel dx="1434" dy="786" grid="0" gridSize="10" guides="1" tooltips="1" connect="1" arrows="1" fold="1" page="1" pageScale="1" pageWidth="827" pageHeight="1169" math="0" shadow="0">
      <root>
        <mxCell id="0" />
        <mxCell id="1" parent="0" />
        <mxCell id="x4h3SabsL8eu5-XkS7VO-12" style="edgeStyle=orthogonalEdgeStyle;rounded=0;orthogonalLoop=1;jettySize=auto;html=1;entryX=0.399;entryY=-0.012;entryDx=0;entryDy=0;entryPerimeter=0;" edge="1" parent="1" source="x4h3SabsL8eu5-XkS7VO-1" target="x4h3SabsL8eu5-XkS7VO-6">
          <mxGeometry relative="1" as="geometry">
            <mxPoint x="210" y="590" as="targetPoint" />
          </mxGeometry>
        </mxCell>
        <mxCell id="x4h3SabsL8eu5-XkS7VO-13" value="3、Code Review" style="edgeLabel;html=1;align=center;verticalAlign=middle;resizable=0;points=[];" vertex="1" connectable="0" parent="x4h3SabsL8eu5-XkS7VO-12">
          <mxGeometry x="-0.1948" y="2" relative="1" as="geometry">
            <mxPoint as="offset" />
          </mxGeometry>
        </mxCell>
        <mxCell id="x4h3SabsL8eu5-XkS7VO-1" value="" style="sketch=0;outlineConnect=0;fontColor=#232F3E;gradientColor=none;fillColor=#232F3D;strokeColor=none;dashed=0;verticalLabelPosition=bottom;verticalAlign=top;align=center;html=1;fontSize=12;fontStyle=0;aspect=fixed;pointerEvents=1;shape=mxgraph.aws4.user;" vertex="1" parent="1">
          <mxGeometry x="10" y="420" width="78" height="78" as="geometry" />
        </mxCell>
        <mxCell id="x4h3SabsL8eu5-XkS7VO-3" value="" style="shape=image;verticalLabelPosition=bottom;labelBackgroundColor=default;verticalAlign=top;aspect=fixed;imageAspect=0;image=data:image/png,iVBORw0KGgoAAAANSUhEUgAAAb0AAADnCAYAAACKTIhhAAABWWlDQ1BJQ0MgUHJvZmlsZQAAKJFtkM8rw2Ecx99ftkhLFDdqKVoaaebgomZKIq2NGrfvvptN7cfj2VfmLidXF6Uc9g8oJzmQi7sSTk7i5LAaxXq8nw3b8Hl6+rx6934+fZ430OIwhUg7AGSytgzPTrujK6vutie0o5fHgwHTyotAKLRAC757c5VvYOh+PaJn5c4e54uXzvvSg3rdf95Z/Otvqo54Im+xf/AOW0LagOEhh7ZsoblA7pFcirynOVnjI82xGp9UPUvhIPmK3GWlzDj5luyNNejJBs6kN62vHfT2rkR2OcLeyduHCHzwYwYTmMQYs/nf6696g8hBYBsS60giBRtuBKgIpJEgzyELC6Pwkn2cxsk649/Z1bXCEDDFvxq7dS16ARwzy25XXRt84TfoPT8QpjR/EjXKjvzauK/GLgk435Qq9QNtp0BFKvV+qFSlCLTe8e3GJ5I7ZBYzS+HtAAAAOGVYSWZNTQAqAAAACAABh2kABAAAAAEAAAAaAAAAAAACoAIABAAAAAEAAAG9oAMABAAAAAEAAADnAAAAAIRKM2QAACa5SURBVHgB7Z09zGVHecevAdkS8VqKhO1Ii0A4jS1kkyooEq6yFHYVKLElREcLDR9VKoMbu6ChC0g2JSiNXXhTgUTiDlvIrmyBcGHHUiIvROKVLOf+3/VzdnZ2vs/MvXPP/Y30vufc8/HMM7/5+M/MmXPvXR/tw44AAQhAAAIQ2DiBi4uL3Sc2nkaSBwEIQAACEFgIIHoLCnYgAAEIQGDrBBC9recw6YMABCAAgYUAoregYAcCEIAABLZOANHbeg6TPghAAAIQWAggegsKdiAAAQhAYOsEEL2t5zDpgwAEIACBhQCit6BgBwIQgAAEtk4A0dt6DpM+CEAAAhBYCCB6Cwp2IAABCEBg6wQQva3nMOmDAAQgAIGFAKK3oGAHAhCAAAS2TgDR23oOkz4IQAACEFgIIHoLCnYgAAEIQGDrBBC9recw6YMABCAAgYUAoregYAcCEIAABLZOANHbeg6TPghAAAIQWAggegsKdiAAAQhAYOsEEL2t5zDpgwAEIACBhQCit6BgBwIQgAAEtk4A0dt6DpM+CEAAAhBYCCB6Cwp2IAABCEBg6wQQva3nMOmDAAQgAIGFAKK3oGAHAhCAAAS2TgDR23oOkz4IQAACEFgIIHoLCnYgAAEIQGDrBBC9recw6YMABCAAgYUAoregYAcCEIAABLZOANHbeg6TPghAAAIQWAggegsKdiAAAQhAYOsEEL2t5zDpgwAEIACBhQCit6BgBwIQgAAEtk4A0dt6DpM+CEAAAhBYCCB6Cwp2IAABCEBg6wQQva3nMOmDAAQgAIGFAKK3oGAHAhCAAAS2TgDR23oOkz4IQAACEFgIIHoLCnYgAAEIQGDrBBC9recw6YMABCAAgYUAoregYAcCEIAABLZOANHbeg6TPghAAAIQWAggegsKdiAAAQhAYOsEEL2t5zDpgwAEIACBhQCit6BgBwIQgAAEtk4A0dt6DpM+CEAAAhBYCCB6Cwp2IAABCEBg6wQQva3nMOmDAAQgAIGFAKK3oGAHAhCAAAS2TgDR23oOkz4IQAACEFgIIHoLCnYgAAEIQGDrBBC9recw6YMABCAAgYUAoregYAcCEIAABLZOANHbeg6TPghAAAIQWAggegsKdiAAAQhAYOsEEL2t5zDpgwAEIACBhQCit6BgBwIQgAAEtk4A0dt6DpM+CEAAAkcm8O4Hfz2yB7ei/9StXfYgAAEIQAACfQk8d/2t3Wvv3Nhde/gzu6e/fLWv8QZrjPQaoHELBCAAgVMjcIzR1mvvfLC7/sb7u/f2I71fvPrO7oX/eufo2BjpHT0LcAACEIDAeAIacb1742L32NUru2uPfGa/vW94pBI8N0j4rr/5/u7Zrz28e/C+e9xTB9u/66N9OFhsRAQBCEAAAkch8ORPXr0t3gf2oqMpx8c+e2WYAGp0+cpe+CR2brC4Dz3deXFxsUP03JxgHwIQgMAGCUh4nt+P9GLBROir+xHgiBGYpjmfu/725TSn68Oj+1Hnd689NCRONx7bR/SMBFsIQAACGyagqU1/qjGUXInfg1fu3k9/3r+TAPYMGvW9qOlNb8rTBPcQoz5Er2eOYgsCEIDApAQkOFpBef2N/969vt+WBInRd699ofvUpxaz+NOd8ucb/3h1+OpORK8k57kGAhCAwIYI1ArgCPGTD9/71Zt3THcqrp9980vDaCN6w9BiGAIQgMAtAprSe+C+u5cDD165tXJxxDO0JaLMjsRHz/u0olKvFaSCVnz2XPVpcfujvpHCh+ilcphzEIAABDoR8FdOhszqVQKFR/evEjy6X1GpIHE8lChKhELP3C4d+fifBEl+PrWfiuzllxa5fP+Xb7rR7DsI9wx5rQHRuw0zHyAAAQiMIVAierGYJS5aXGJiOFoIS8Wv5zesKM5v/fx3tyEYIXyI3m2I+QABCEBgDIE1ohfySKOt0SIoIdKqz9TCFwmTRn09VnoqPv85X2/hQ/RCpYljEIAABDoT6C16vns3v2Xl/r0QXuk27WhxlIhfr5WXo4UP0bNcZQsBCEBgIAFN3alBP0SQAH5j/8XOvadBLxe8JF556DUqGyl8iN4hSiBxQAACEHAImPi9e+OWCL73wcWlKL6+X9Sh78e0a5zbmnZHCGDq210kfD2e9Y0SPkSvqRhxEwQgAIHxBLSqUeH1P93YP1dbJ4a9pz8lShI//3UDo9Jj1DdC+BA9yyG2EIAABE6AgIRwrQjquy57PfuLfbuKUPYY9cWEr/UFdkTvBAo5LkIAAhCIETAR1MvlEoiaoBWXWoCy9n27kDC5fqxd5BKyr5fkJd61AdGrJcb1EIAABCYlIAH8j/2Uo75js0YAe4if4ktNd44QvhabiN6khRe3IAABCKwhIAH8xf6LnWsWxfSY9gyNyiwdmlJ99uuP2MfqrdLkfnOLpk9rvxAb0avGzg0QgAAETovAi3vxK53+tNWea35VPTXqW7vAxX+GWGtPovfJf92H08pCvIUABCAAgVICj332vt2//MPfXT67e+v9/9v95a8fRm/VyFBfjv3e/nWKhz7z6d2993wqem3shO7Rc8K/2W/9b3NR3L99+393//TQ3zbZVlr0qofSoSB72v/q/vf/SsKHH36I6JWA4hoIQAACp07gofs/XSx+EpJ//927H4vXJ6sFSsIngfpoD6238EmMJZwm3u/thVrxKL5ckOjd9dE+5C7kPAQgAAEIbIuAnpE9f/3t7KIXTXl+Z79SsnWVpz8laRRbnsnZvZpC9b+gWj7mvgOU6U0jyBYCEIDAmRGQiGnaU1OZf7n4cBk5+Rg05WmjPo0Wa4NGYBK4/3zrf267VSM1rTSVzVpB1UjSt6nRaW7alJHebVnABwhAAALnScBWe0qEUkG/qKB35GpFSjZDozMdr12Monss+KNI2Uq9uM5Iz8ixhQAEIHDGBCRi1/aLQfTjtXoGZ8/LfCQ69/Z+RKWfNapd5KLrJZju8zjZV1w6plFnbZDfGuHpuZ6CbEn4/j4yImWkV0uY6yEAAQicAYHn97+jp5fNU0Hv9UnEakPsXb7cKC0Wjz+CTNlhpBejyHEIQAACZ0xAz8ZsFBUb9f3242d0JasmXZQa8cm+nhO6QfHodQSdqwmy564STdnRSO8TNca5FgIQgAAEzoOARnE//trDyed3L776zk4vv9cGCapWW/pB7wjqOV1t0KpNjfAspL6KjVcWjBJbCEBgagLPPPPM7o9//GPQx6985Su7p59+OniOg+sJ5KY7Wxe4+AtRzNOW79X0f+dPou1/KbWmNxE9o8wWAhCYmsAXv/jF3R/+8IegjxK8n/70p8FzHOxDIPdeX+v7fCHh06it9ns19Wzvuf2zSHsZPmRDosf0Zp/ygBUIQAACmyag7+NMTXdqSlEjQolPTdDUpL6M2g3vXQpY/sV59x5NmT715avLIdkITb0iegsidiAAAQhAIEVAwpITvu//6s0q4ZNNTUO6z+Tkw03heyvlzh3nJMyugGrUpxGqGxA9lwb7EIAABCCQJCCR+rdvfim6wEUjvdoRn2w+u1804wufRCv36oTvrP8c77n9V625AdFzabAPAQhAAAJFBCR8se+61FSnVmLWTHXeHPF94Y64tUK01o77/qBGjK5wInp3IOYABCAAAQiUENBrB1q5GQoSq1rh0/SkK1iye/lsbm+rJrg++aPH+h9LqomZayEAAQhAYNMEbPGIRM4Pdsyu8c+HPkuwNFKU2FmQeEoMS3/cVqNGvfag8LSzuEWfGemJAgECEIAABJoJSNRiU50SvtAqylhksWlO/9lc7H47LrHzBU/nED0jxBYCEIAABJoJpH5zT8Lnr6JMRRSb5tR7eGsDoreWIPdDAAIQgMAlgdSqzu//su5VBk1z+s/jNM1ZI56hbEH0QlQ4BgEIQAACTQRS7/HVvMOnaU53QYo5UzvNaffZFtEzEmwhAAEIQGA1AYlVTPj06oFGa6Uh9m0t7isIpbbsOkTPSLCFAAQgAIEuBCR81x4O/9Ze7cIW/2VzOWirQlucRfRaqHEPBCAAAQgkCWhFZ2h6UjdJtEpfOJeA2usHFqH/wrkdL9kieiWUuAYCEIAABKoJSPgkWqFQ83wv9DpE62gP0QvlBscgAAEIQKALgR7P9y6nS/cvp7tBo72WlZyInkuRfQhAAAIQ6Eog93yvdJozNFXaspJz6NeQ6QcfX3zxxUuA9ovH9iOQn//85xew+tVjfX788ceXY6N2FP+vf/3r5ReY5Zfv0+c+97md/g7l05q0+ulR2oyt0iCmh+CqNMgX8ZQPFkJ8dU55rjDzr12/8MILl+mxNBjX3j9WKl5WBn/zm99clj2xsXyzsqhjhPMioHJh5e6UU25fQxaaktRqTjufSqON9tzVnzbaK/16Mtnv/svpyiQJ3TPPPJPyP3hOmasK/tRTT11W+F6ZrUZFf/LLGpegA4GD8kGNjxrptQ20mLiCEIhuOaR4Y41rLWNLww9+8IOuFcj8kChIIFqD+Wf53mpHv6xdGl566aUgC0tTqvz+/ve/D95bGreuE68f/ehHxeXROi+2rYkrdm2uLihfeoa18a395XTLW+vEuHXR0modRZVFO9aTQcyW75v5aNfLF+v8WBt5SP/Mj7Xbb/38d8EFLD/++sNF36upUaFsuEG/n/fs1x9xD0X39cvp3URPBejb3/52cSWOeuWckMisaQjVcKUaLyeqol0VMvnzwx/+sOh6/6InnniiWPTUuL388su3mbCK0Zom+S+7a8TPfFB+u43GbY6u+CD/xFfbmiC/akQvJFxKj/IoF0L35u7R+Vqhi9lUPioPxWhNw5erH63pjPmdEi2lxS/vvp3U/WorQp1EK6+tHd419d33P/RZedBSl6wu9+iMh/wadUzfwRka7WkUF3v25/vyvV++sdPv7LmhVDQlequf6alQqaHQn/Z7BjUSLTZVkO69996ugqd0yRfZVuXTtjbUNFDq6blBcT/55JNN8Zod2RBT2anl6qd9hODJTxOeWr41bBWPz9fi1bnewWz36hQqL2RLf6PyoTeDY9gTG6urteVd/rplvuX+VJplT22mynlLHup+1WWVgVRnIOXDMc5pGvOx/cjMDzUvrQff29uLaWlYJXoCL+AtmVbqYE2P3y1IpfZbrlM8Kqy1DXNLXLrHKq/i7RFkp1b4VLkOlV6lUXGpbB0iqPEoGeG1+GIdwhF1RDbNfq+y0ZLGGe9R+emVp1ZfepV/K9u9ykRv/0bnZ+yLqUvf3dOoUFOabnj3xoX7MbnfLHoCfYhGqbQHb8LQqyAlqX180grviAZHNvVnDVuJPzXXyLaErzRomufQQT6O6sXKtoL4StB7B9lXo3uI8qg4ajsxvdM7kz1x7yVQli7lp2yutTvCN/nYyz9L78htajWnu0gl5YO/8MUWtKTusXPNolfTYFpktdvShSOjhKHEXxW20gZHD6Brwuh0yffSBr9mxF2Txty18lELPkpCaQfJtbW2EXNt2b7ybfQMiMVlW3FSnBq1nnMo7Wi0lBVxbRU+5U+Jb/JL7Z6ea+tPzym1LW0L9exS5W/2INGS+PmheLR3JXBv4RRn0ysLaiiViaODLWtPxWOFKXXN6HPyQcKnB/89Q6kgrYlTjWTJYiFVRgnfMSqUfOz9wF7P9JSW3ulpKY9q0NQhcjtF9syx1keVGcurNeXiFO9NsVLZdf8sfdaO1aw4l/CZLbOT2ypfUmVNeabFSSlx03nZSK36VXoUV2x1cs7PQ57Xd3OGFrWUvMJgU5zugpbSKc5q0RP0Q/UmVbBy4RDCkPNB562whVaQldx/zGtUiXMr5+Sf8iNVcUemQRU91SC0xN17lKcyUDrlr7SUdDaULjGX7VRj56ZfI4reKy9d+zPux9oliYnqZKwt0XkFjaaUH6Xip3antJOrcpaqNzaqy3GVr/pTWlJ+WlmZvS3SaO/6m+/f8QqDhPDa/ttXQiNBl5Hu12/0WbApztw7e9WiJ9gtQZllz4XUo1VPVn/KoFiBsAIZi69kuiB2rx1XHNbDNn/sXO12xIik1oeW68Vff7GGwWzmzlt+iadda2xlQy9et3aYVE50by/h6y14Sl9JB0xc1MgZH92XC7pWf0q7GJSIn2YeTqG3n0t76XmVDz+Uiondp/Jr4pd7ZKH4lN85YVG9SpU13V9bps1P+R2zXVqnLe3H2q4a7QWmODVK7C56glkbchlrBdbtveQKgmVqrS+6XoVGAqwC7gf5okaltXEeMSLxfbTPSoexs2OtW/HMNcSugFk8KZZ2jW2Vp5qicfPZzpVsdV+uXJTYGXFNrjevOGsb4ZCfSr/yqaRRFq9QGQ/Z3dqxXJuTSq/KtDoMOcZqI3Kj9VRHSHmzpjwr7lg7qHZBZbJkBifFYvS5NaO90BTna977eyH/qxayCHBtI1tS+FTI9KdCoCkD3WOjwpDTOhbr4cSut+OKR/ZjjUHuvNmJbcWnVTBjNt3j5t+f//znS1biZcx0rjUob3NB9k0YLa8Ud4xlyJ5s6PqWyhir4KF4DnnMGphUnEpvDaeULTEU91yDqTpSW19T8Z7KOXHJscmlRYwlfLmgjkUsqB2I8Vc9Wlse5KPasliYtb74/sZ+d69kJee1R+6/zZxNcd520PtQNb0Zy0DP5m0frZG87WDigzJSf6mwJjNLp3ysQLaI66jRnnwyv4yPsdK2ZARg9/lbWzjhH/c/K/7aPPVt6LNsqGEa2UEIxVt6zLjKT41wjU+oDii/U0ENUw9mfhyyK99SZVQjjZYOhh/XqXwW55QQ1KRDZUDlPcU31VlMlQu/Htf45V5r9T7mh8rriLLn+rB2Pzbae/2dD/amrybNh150f+1PN5JTnFUjvWTskZPWWERONx1OFcKUQVV+a8xS19m53NSFXedvVdBChTA0PejfG/usSpKrKEpbSe80FEfMZ//anhUoN5r349bnENfQda3HxFCNpjuCFncd059fhsQtJdy6d+2oI5UW2U+VafFK+ZeyfYrncnWkNk0qoym+sfzPjfJ61qNUmlMj0VoWI68PjfY0VZn7BQab4nR90+KYVKgSvRYBS81ppxxLnWtp+FTIaguaCnuqQKV8bBXmkE35XerHGp9VgQ8ZWjoBLXlfmiYTuxqRSjUqa/Ki1Gddl5u90AKicwjiXVvHc1xkM9c5C5WBFPOcvZxP/vlUPWpps337h/gcW61ZMsX56NX7dg/s3/nTr6vrOzh/9s0vJV2uEr0U3Fgsakh7vqjb2mttLWhKc0tF6lnYSgXP8qA1rT19Nl+sJ6xOgP2pI6Q/LRSoDSN8lA8SvBqxM79TnZvWfDDbpdtcw5wadZTGcQrXaZHUiJDLx1CZTLVTLeUslS7lv/5CQfVvZEcxFGfLMY3YQlOVJS+rP71/dUFCp21u5aZ8q3qm19L4KxKB1+sFypjcC5i6PhVSPajUfa0FTT4r3bUFxwpbKzM3LbU2Wn1242zZV5rV61UjIF76fApBZaOlfKTSpzyo7aysYaWGWexjPik/5NOWQ209KWWRq09iLr4W/yEFz9Kgznks73XcfLPrZ9xqxPbK/pUDP+gF9Nw7e/49qc9VI721lUbw1cPXyE/bWiFRQlruaWnQXGitBSZWCF3buf3WuHN2Q+dDPdbQde4xpVGjHXVqlK/aHzmy6MHU9V/7uZ68f719Dk1r2blWm3Z/7dYa5th9rZ3FmL0Zj69tn1Jp6lUPW2bLUn7ZuVTaW+q12T3kNjbFeXNBSz9PqkZ6ilbTQBKsNUENl/7UOEqQ1ECUFqoRjV4uLa0F9ZiFTZWgpYOQY2HnlQ9q9FPTe3btzFuVu9Ky56cjxffQoiff9FVtsVHGMeqNz2vk59Y8LPUpZ19lwa7JdTBS5abUH/+6VP4esx3y/cx91hTnK/sfinWDRn96XtdrtFctespYNagpyK7DuX1VUv3J5tqpz1hcJd/hGbtXx1O9qNR9xyxsrUKdSo+dk9CduthZWqyhss8121jjpfLSWmZq4vevVQcy1iGVr6qzx/DL93PE59HpqqlPsXKhdB+j3vRqq0fkm2/zn/dfPzZ6irNqelMOqnBptNc7KGNs6jOWSbHjvX0J2WupVMf0N5SGHsc0jXmMitvD95CNmsbMvT+Vt602Xfut+y3ltDUu7rtF4Jgd3FtenP6eFqKERnQ9pzirRU9Y1Tse9ZBejUns639aC1aPhuCYDdkMRVn50uO7TmdIy2gfepS3Vh9T5bS1/rT6sqX7cnnqdoLc/RkY5HyfwUfXh9AqztDoz72nZr9J9BSBRG+08G1pRFGTKTNe27rwaMa0uD6NaBBSwuPGPWJ/RHpG+Lk1m3Dvl6NaxRkKuRfVQ/eEjjWLnoxJ9PTNFSMyXL2l1BLsUGJGHmvpJY/gMjKNMdvqfKSeU8Tu84+Lh80SWKdpK4zctLaUFff+NfuzjTLWpOUU752R/zE7YS15qFWcoeD+dl7ofOmx6oUsvmE1WvpGiBEr+VSA9P119gyxNfNkZ82CBT/N5/RZYtc64lbZsJW5Mf4SiBkbilwep8T6FNOTS++5n8/laWnbpLYsVhdGMU6V1VFxrrWr53r+yE7P9WKCWBPfatFTZIKqnrsaOIlfzxGaVnZaw1mTMPfaHj3vXKF347P90opg18+4VV62BBvJtdzLPe0EUiPyQze27ak4vTutrpcITMk1p0egr8exVxe+c+2h1RGtmt70Yzfx08hPPZq1L4WbfRtptBaWVENgcaS2rfdbRUjZnv1c7L2vlN/Ke4ne1kOsPKq8tHSS1vJKxRnzNRVnj85iyv4pnatpA1KsYVqW63p1IRT80V/omtyxrqJnkSnTJXhq/PTMb+2Q3i0oLb1V937zsWabakxSdlp8Tdk79LkWwVOae3V2Dp3e2vhS+VvTSNbGG7s+NSoPdcBCx2K2Zz/eWkdL05VrQ9yysCWupXx6Xxd/deHG6qiGiJ7rlQmgfpJF4pfqBbn3uftugW69f00jlPuGBddXd7/FV/f+Y+/nKnrIv2N8E0nIj0McS33pQUqARvmWitNtlC3+XPl0653dM+u2pazWpCVnP8fS4krlkV3DNk6gx/t6w0XPdV8jgNzPoLjXu/smWq2N6prC1jLi2cJoJ1fR3fyx/VDjaudCW8vX0LnZj6UaOqXrkKKhuFLxtdSblvxP5VnKv9R9M5xLtQF+XU9N7YvBKZf5Q+ZF6H29aac3U2DUULRUQLPZOnXQWtDseaLFX7pNjQJKbRz7upZGqrahbInj2Fwsfgl8SvhiXwlm9/fcpuKSjyE/c3Wptc6E0pUSjdD1tcdGiknOd7+u57iecpmvzZfe179742K1yYOO9MzbXKGw60JbVd7a0YTsqKClGoZQXLqnVfT83l/I/uzHagWsNj21+VFr/xDXp37DTaLRWn5qfFc8KYFq7WT2zP/WRwQ1HEaxzs0S+e1Rro3Sa1iEPIHQS+oa6a0d7VWLnno9PX8UNp/0m1e4QpmaPkjZk+81FaO1Ud6C4ImjyzzF1T2XayDsWjXSuR60XTvzVnkdGkWZzypvI3v2sq2vh4sF+RarL7nGWbZTYhqL0z9+qLxWPD38df3P2YyN9lMdDXHdQtl3OY3Yf+C+u0eY3VWLnnpsVtHs99P0uTTo2rU9HRU0v3dVGr8a5ZzwWfpaK5AW7JxrUGXOcdP5VEN9auxSDZzSEvsu2bXpVDnNdcxyvuXqUa6ulKShh42SeHRNjkepHbsuZy/GN8dVbWBNu2n+nNM29ivoa7+ZpVr03AZNmaYCLfHTnwqINXpuhmrfvdY9V5KJod50q7C4fsh3S4+Oa9/SY8dL/HOvafXLtTHLfq7ixvxUOXDZ6jrjK7HbkuApbRpJpUZ7Sntv4ZNNcU6V09QoT34r5PJY9lNx3LQS/5/z0e7sNZVqXMzumq3KqezFgvjGZnV0LtUWjCgTMT9P+XjoFxfWpqf6G1lihUDH9Tdi2O4/KFairUKrcW0J8rX13lh8qUoQu2fm4+rFtjBy2YqJPvcMsie7MwWtSk4Jm3xWx1ANoYRmjf+qYxKTXEg1unZvyRS24mpZda37erYHpeXI4ixJv3HwtxK8nNinnufKXq5DofSozLSw9f3d6ucHr9x9xzO8tV9HVjXSs8J0SMApIVGjnCtYh/JVfq6pZIfysyYepWkt39KGqsavGa8Vq9hUl+uvhKBVDNQIqzHW/blg4pq7LlW/7F5rnEvzUtfJz2O0F+az4lYnIydcdr1tzffcfaoXsVGe2SppE4xtS+fS4nG3stfLlmv3WPsjRnpVoneIFVg+3JSQWKHS9tihtJE5tp+18ccWQdTaOYfrxaqElxpUCZcJmD6rsQoFNd66Vg14yehDNuRDrkF248qNWHSt2ziHBEHnrcGNiY2+oGJEUFpD3OWP2OlP+6mQ8929V+1NaVpivrn23LglWCG+7vX+vt2ve8W+xYZvc+bPa1dvVk1v1mbGWnDqTeVGGiqAuamltX7k7lcFyPmZszHrecuDQ+f9rDxyflnjW9LbFlP9uSMi68DlGumUHyUjTvd+xSm/cz5b46p7zU9Nj5aUDdlP1ZE16ZU/SrPx1GcLsqs/MZbP8te2ukbPEnVfTfypjrjF625jvrnXaF8+WB7IR+MVmoKW37o+xl4L9ux+P55z/1wlejUFYy1YZVhpb0oF5BjCp3i3OsJz809pTD2vcq+t3VdPOFV5Q/ZU4cV+1mDCp4ants7UXh9ioHjNh9D50LHShtnuNT9ta8dDW9Vl80f5VnJPyE7smAlZrpwqXv3FhCJm3z3e0sG1dqJk5bjFZb7a59rtmjTWxjXy+geu3NPdfPH0ptsb7e6FZ1AVpFTw7FYVLAmfVS47Pmqrxlpfpn0OvSljq23PoLyq7TX3jH+kLUtbb2YlPmu0UCss8lN50dtfv/MaGrWUpKnkGvk+alGIbLcInvmt+1UmDtU+rRVN83vG7dpvZSkWPRVeNfQjgxWs1oJhBWukGJmPW22sY/mrdPdqUGRL/CyfazsOp9KLVbpUFkfXm1CetbwL2zOP5ZPyt7bzGkqLjqVE3BVSS0NP5paPteU0lBYxGdk+uXH2eg3EtXno/aMuZLGGShmmjOtRAAyga7uHXdlTZevZ4Lg2e/hoaT+lrRisHU1bpXcbpa3zlMDbKEEMDxE0M9MyO9Mjj62uKK9rQkrYahpwxa/FObXx+75aOnoJt9l37fYu+7Jtday3bfP/2Nu1C1nu+mgfWhOhQqpet31LS2kPXBljD9vXFswS31v8HOGj+VHis10jP1oKr/Ii1YiYfXdbE5elRc8pcvku//UXy2uz5fqS2o/52dLIu+KbirPXObEyZrX5Ix/EUHWn5BmrOK0Zncu/0udQikt+6U/7saA8iq0Cl1DF7jVuIbuKM1ZHrGwZ89D97jFLh5VZ99yo/VofXT/kr0a65m+Mg3vPKe1L4K6/8f4dLj/15at3HCs5cHFxsVsleqFI3Irs9s7sYXPonkMfMx/NP322yjaTn4fm0hqfyxOW5RTFSmVQDbrbcbByqQZM5dEaNSujikH3lgifRDLW2Sj39GZ88lG+6U8+KVh9OYXG1nhrqyDxnS0d5psYu/vy13y1cnAKzOX3TGGI6M2UQHyBwJYJaMGKLXFPpVPT/NZQpq7jHAS2TgDR23oOk77NE9DLyDYiiCVWI4Lez6VicXEcAjMTkOgVr96cOSH4BoFzJVDybSqaliwZEZ4rQ9J9XgS6P9M7L3ykFgLHJ6Cv2SpZxMM05/HzCg+OS4CR3nH5EzsEuhBIrXp0I9AKRgIEzp0A05vnXgJI/8kT0CIVLdvPhZZvasnZ5DwETo0A05unlmP4C4EIgZJFLRLINe/uRaLmMAROggDTmyeRTTgJgTICI747syxmroLA6RBgevN08gpPIZAkoFcTUtOc+vYZFrMkEXLyDAgwvXkGmUwSz4uAP82pKU2NAvkGj/MqB6T2TgJMb97JhCMQOHkC7mjPRncI3slnKwnoRICRXieQmIHATAQ02mN0N1OO4MsMBDTSQ/RmyAl8gAAEIACB4QSY3hyOmAggAAEIQGAmAqzenCk38AUCEIAABIYSQPSG4sU4BCAAAQjMRADRmyk38AUCEIAABIYSQPSG4sU4BCAAAQjMRADRmyk38AUCEIAABIYSQPSG4sU4BCAAAQjMRADRmyk38AUCEIAABIYSQPSG4sU4BCAAAQjMRADRmyk38AUCEIAABIYSQPSG4sU4BCAAAQjMRADRmyk38AUCEIAABIYSQPSG4sU4BCAAAQjMRADRmyk38AUCEIAABIYSQPSG4sU4BCAAAQjMRADRmyk38AUCEIAABIYSQPSG4sU4BCAAAQjMRADRmyk38AUCEIAABIYSQPSG4sU4BCAAAQjMRADRmyk38AUCEIAABIYSQPSG4sU4BCAAAQjMRADRmyk38AUCEIAABIYSQPSG4sU4BCAAAQjMRADRmyk38AUCEIAABIYSQPSG4sU4BCAAAQjMRADRmyk38AUCEIAABIYSQPSG4sU4BCAAAQjMRADRmyk38AUCEIAABIYSQPSG4sU4BCAAAQjMRADRmyk38AUCEIAABIYSQPSG4sU4BCAAAQjMRADRmyk38AUCEIAABIYSQPSG4sU4BCAAAQjMRADRmyk38AUCEIAABIYSQPSG4sU4BCAAAQjMRADRmyk38AUCEIAABIYSQPSG4sU4BCAAAQjMRADRmyk38AUCEIAABIYSQPSG4sU4BCAAAQjMRADRmyk38AUCEIAABIYSQPSG4sU4BCAAAQjMRADRmyk38AUCEIAABIYSQPSG4sU4BCAAAQjMRADRmyk38AUCEIAABIYSQPSG4sU4BCAAAQjMRADRmyk38AUCEIAABIYSQPSG4sU4BCAAAQjMRADRmyk38AUCEIAABIYSQPSG4sU4BCAAAQjMRADRmyk38AUCEIAABIYSQPSG4sU4BCAAAQjMRADRmyk38AUCEIAABIYSQPSG4sU4BCAAAQjMRADRmyk38AUCEIAABIYSQPSG4sU4BCAAAQjMRADRmyk38AUCEIAABIYSQPSG4sU4BCAAAQjMRADRmyk38AUCEIAABIYSQPSG4sU4BCAAAQjMRADRmyk38AUCEIAABIYSQPSG4sU4BCAAAQjMRADRmyk38AUCEIAABIYSQPSG4sU4BCAAAQjMRADRmyk38AUCEIAABIYSQPSG4sU4BCAAAQjMRADRmyk38AUCEIAABIYSQPSG4sU4BCAAAQjMROD/AcmaXZgPXGR0AAAAAElFTkSuQmCC;" vertex="1" parent="1">
          <mxGeometry x="379" y="520" width="194.57" height="101" as="geometry" />
        </mxCell>
        <mxCell id="x4h3SabsL8eu5-XkS7VO-22" style="edgeStyle=orthogonalEdgeStyle;rounded=0;orthogonalLoop=1;jettySize=auto;html=1;exitX=0.5;exitY=1;exitDx=0;exitDy=0;" edge="1" parent="1" source="x4h3SabsL8eu5-XkS7VO-4" target="x4h3SabsL8eu5-XkS7VO-5">
          <mxGeometry relative="1" as="geometry" />
        </mxCell>
        <mxCell id="x4h3SabsL8eu5-XkS7VO-4" value="" style="shape=image;verticalLabelPosition=bottom;labelBackgroundColor=default;verticalAlign=top;aspect=fixed;imageAspect=0;image=data:image/png,iVBORw0KGgoAAAANSUhEUgAAANUAAADSCAYAAADdRYU7AAABWWlDQ1BJQ0MgUHJvZmlsZQAAKJFtkM8rw2Ecx99ftkhLFDdqKVoaaebgomZKIq2NGrfvvptN7cfj2VfmLidXF6Uc9g8oJzmQi7sSTk7i5LAaxXq8nw3b8Hl6+rx6934+fZ430OIwhUg7AGSytgzPTrujK6vutie0o5fHgwHTyotAKLRAC757c5VvYOh+PaJn5c4e54uXzvvSg3rdf95Z/Otvqo54Im+xf/AOW0LagOEhh7ZsoblA7pFcirynOVnjI82xGp9UPUvhIPmK3GWlzDj5luyNNejJBs6kN62vHfT2rkR2OcLeyduHCHzwYwYTmMQYs/nf6696g8hBYBsS60giBRtuBKgIpJEgzyELC6Pwkn2cxsk649/Z1bXCEDDFvxq7dS16ARwzy25XXRt84TfoPT8QpjR/EjXKjvzauK/GLgk435Qq9QNtp0BFKvV+qFSlCLTe8e3GJ5I7ZBYzS+HtAAAAOGVYSWZNTQAqAAAACAABh2kABAAAAAEAAAAaAAAAAAACoAIABAAAAAEAAADVoAMABAAAAAEAAADSAAAAAJcsquMAACZISURBVHgB7Z19jB9HecfXPtvn2NhJiA1+IwnvpZSA8mKLP4oCgkIhIcUI0YpEQqFKIMURVVsFoUQEJZVIK9QWQ0LSQqUmSKVtTBJCRaUKEK2o4iQmJFDUJApx5LMTHCfBjh2f7bO7n9/5Oeb2dneemZ3dnd/v5pHudn+78/rMfOd55plnZhecyClLlDiQOBCMAwuDpZQSShxIHBhwIIEqdYTEgcAcSKAKzNCUXOJAAlXqA4kDgTmQQBWYoSm5xIEEqtQHEgcCcyCBKjBDU3KJAwlUqQ8kDgTmQAJVYIam5BIHEqhSH0gcCMyBBKrADE3JJQ4kUKU+kDgQmAMJVIEZmpJLHEigSn0gcSAwBxYFTi8l1zIHdu3ePSeHiYm5zwi3Yd26Qdj169fN3M+JnB4E50ACVXCWNktQQHPf/Q9kApb7HtiRTeQg2VUCHpfcTj/9tJngr3312dmyZcuyD7zv9waA23TB+TPv0k0zDixImxSbMbBpbEC07a57MoADkPqkDblE23T+ednGC85LQGvQEAlUDZjnGhUAIX0ATwwgspUfkK3PVchN55+bIcmSNLNxbPp9ApWOT96hYpJE3pU4GVEk2eZLLk4Aq2FmAlUNc3xfCZAmdu/J7rz7O77JRB0PgG3+4EVJgpW0UgJVCVN8HwGmrTffOrJAquILALvphuuT9DrJoASqqp7i8PzLN38t23bPvY2tcw5ZRhlUpNfVV30yyvJ1VagEKk9Oi4r35Vtu80xhdKPNd3AlUDn27QQmPcPmq1qYQKXsI8MMplWnLc+mjh8f1HTyyNTgyu/JI8eUtW8W7MO5tXDLVVfOG6+OBCpFf2HOFLuat/ld52TrV5+arX/FtNfEpt85K78/tbZ2E7/69eD9fT/bmW3/+c6M39y3QfNJJUygqulBLNJec9310RkgABC08c1nZRrw1FRxziuAtetXL2TbB0B7KjjIANcd37htpKVWAtWcbpVlqHrXXHt9725DZtEAEiASQJnv2rwX6fXtHzwcDGCjLrUSqIweGdu8CSn0oXeeE1waGVV2ugVg277/02xbDjDum9LVn7oiG0XzewJV3jNiAxPSSMDUtOO2ET+k9BpFdXBegyokmJYsznfRLMiyIw0sarGDqQygAOyzW7/TSDUcNWDNW1CFsugBptNWvCx7aXIyO3DwpbJ+Z32Gmvfpj/7uQM2zBo40QFNwjRKw5h2okE6XXn5FEIve2tUvz1adtjJ7cvcz3oD64paLOzc+tInLbd9/ONv6rR95zbkA1ij4EM4rUIWSTiuWn5Kdve6Vg77pCyik0+03XNpm/+4tbaQWBo2t3/ov5zKMArDmBaiQTiFM5Kh6Z69bkwGqI0ePeksowASoRp0A16XX3e4stYZdFRx5ULGA+7Fc3WtKAOkNZ22YSebRnbucVT6AhLpn83SYyWQEbnyl1jADa6RBFQpQzJ3WrT5jpov7AmpU1b0ZxtTcbP3nHzmrgwDrh9+7tybVOF+NLKjuvPuegcrny3ZUvTNyI4QJJtJiDrXvhf1OyW7JLXtb/vAdTnFGMTBGDMzvLjSMwBpJUDUBVBWY6Ai79+7L9ux9zqVPDIwR82H+pGWKzzxr2DwvRu6E2oETbO6350qACTXvLa9/9RzpRFqsQSVAuXJ1bnjmk3fccNncFzVP2FVNuw4LjZSk8p1DoeaJibys4bD0PfLYk2WvKp/NFwtfJQMsL5BY77zyK5ZQv3k9TIaLkZFUmM1drXxIJyx6dYCiWZlHuVAClJ1bSKwf3Pppe8CTITidl0N1hoFGBlSsQ7kQgELVw1ReR8yjXNyPEqDquDn7HcBysYhy3Bvz5dhpJECF2ueic6PuASgbofa5zKNYg0pGCRtXZ7+HX1hHtbR1CA7aGQlQsTtXS6aLkS3O/z25yxZk5j0e5l1vIJzJfMhvWG7Q8g418JprPx91jYceVPjzab+GUfSKqGsZ1L4jR3UHo4inRF166V09B7Z89B1qT5P7HnjQSTOpzzn826G3/r3uLeequKIBFOoeJwwdOnw42/XMs6p0XSfcqkTnaSAXiyAfS/hmftZFjDTU36dymbSaFj48IiZzACGJpoE0fe/TQMyjQhKnGdG5ON1ITjbiNwSAN5w8LYn9V9zzbBgJ7wqpI/WTur1m/RnZExP7rFWSeXSMXyIZakmFCV1joBhfsjjD2jd5xB88Za0c0v3Idx/SsO3H8q1nGf9jdWEaalBpVb+yBmn6LJTahzTCH06kkU+5QoLbJ39tnMuuu2NG+mrj2MKhAsYmrYbWUOGi+tkaxud9CLUPMNHRmgCKsrMZsGkaPjxwidMGoMg/xkNOhxJUWPxcF3tdOoAtLJKh6XoUnQxVKBSxhT1WQhrL/DB0GWVuFTrdJukNFajEFanv0Wnzu97ahOeNTx8qyzwkQMvSb/LMdbuHa15994dieYcGVADqwvdepDJMFCsZ+jfnL/gSm/XaAkCMKiB1bbtcE3nf0BisfNvMNd5QmNTljAnXyrUVnjkM0srVnE3n8jkMRVsP1/Jo020SbiI/l90kPCf4kIJJ23/+1OD8dl/wsfgPqGIxWAwFqEIc2mI2Yt09pneNJwVzBK1rjeTXlhpEOTjRNkYCMFI+2zwUnn4lH7B85l/suYrlCOnoQYWVrw3RjlMttGLZKfka1uJsfMmiwdVnd6+mM6P2uXYWAS0fJhASaSSLwPJb3sd2xUqqLSOg4w8+uS4zxCStol+nuvB9F6l9+6o6FAACPLgqASAbPfLYL63Sig6vNauj1mg35GlHdVsdRuH9YP7p8DEEPi53041f6L3qUUsqpJTWWdbkpCuIzLjc44FhUwFd9H+NYYPRHJDaVKRiWUf5N97rG3PJ9Rd/e3f29L4D1qriaBsDRW3923a3/niq6T1SZ2fn/fbrBzt5+a2RSl00Ap+eqaMEqGruMMj89WcuybWM8epAJ9+ICmgN2HKAaEHlMpfiwBYcZkOBSLPTd+Obz1Q1DRKtTqoBKLaVJwlVzU54856Nb6wOYLxpY/5tJK+6jRZUWinFPKl4Np+q5hWB8FoPSXWqnwAqZH6jmpb23MT7HtjROwuiBZV2xDG3dITg5rPKgzLlg9W2POtUP62hw5bHfHjPAMS2EBuxENw3RQkqLaDamDe9eEj3jSkxd9sasEr1S0YJG+fmvv/CJ39/7sPCkxjmVVGCCg8KDZ1x6vRakyasJgyqn2Y+xaipoSpAMUfQglKTz3wJI2tztvpqB2VbOr7vowTV9vt1plHmUyFJq/ptVnov7Cq46EhZk9onnHC7MphpDDp4V/RJUYJKwxBUv9CkVf1YO9FQmaRi24hW0mnymG9hNFZXn7XNkHyMElR9LOJpVT+YrxktqxpJa8Wqij/fn2sHtD5VwChBpRlpcDsKSVrVz0XKFMMipRI148AwzKuiA5XWSBFqode1ibXzKdJFogmwMEz0JaVQQ8tUUde6xxAefmo0hYnde3orbnSg2rBuXS/M0B7vrFU/pBJ4S/DXl3ECMOHMW7cILWX1ueL0GgqwIdPalUDl05zh4mi9KLSjZLFkIq2Kz7v4LRbItg6HId1QgGWhXPPhbY2xos9F4OgkVRcdrZiHZm2KOC6qXzGPvn6bUiT04TCSNhsRQxFp2kCq0Rb6XAROoMp7A6fVjiqZ29lDnxchnZ9NhQKwEHxEYtWlpzVWhCiLTxpRgoqTR7sk7fpUX4aGJrwo+igKEJqkWRbXdVdzWRryzCattOq01ugl+Ya6RgkqTeW08yBNWhr1T9uQmvz6DBNybmWqfd+27BnT1NmUQLZyatpjIj8Qpg8aWlB1rbKZDd5HQ4XMsw1pFUIFLAKlrpya9ujLrB4lqNYrzOq27e7aTqiVeBqLkzbPLsMVOyp526SAtnxiWZTwTVXA4tFlTcvZl1k9SlBtOt/+zSktGKTB5+u1akSvkwK+vGqqAhbnf5SjymKpGeT6MqvHCar8g1424rM4IYiPvGmorME18foOg6Qqk1Y2C5um3EULXVMVsLSc+Qm3LAoPE0UJKg0DTfWPj7hxXt+Tu5/JHt25a/DHb/4wQtRJtbp3mnIMQ5gyaWWzsPnWq4kELCsn5ShTA7VrVb71aBIvSlCtV5rUf/roE9mD//vYAEy4GQEuQMQfv/kDZI889uTgyvsiiLQ+hGWjaBPGdxm3quwhpFWxHmUAKIap+k05q8rqerhmVR5dPI8SVPj/adaqjh2bUvMIoCHJ+ON+PpF5wq1Z76bSqgoATaSVWT7zHtXSJ90+1qqiBBXM1FgATaZr7wEU0gtwFaVWXRrb80aNiQBEcU5TVb6qzk/4JpKlKr8madZ5oJOuzK+qVMWqMnX5PNoTarEAtrnRTFTBtavsJ/TQIOZCZ5cNZOYFiFCDTNO1dEKxhmFQMUFE57N1QCxsPl70pFsFbKRKnQcK9ZBPCkkd+Dh40axu1p/7AWD3/jr7yLvfVnxV+psF4K53PkQLqlIOBX6I1Jo88rQqVbMjqyK0EKgIKLKQcsm1hWwrkzTBWwxE56/63BDSRgBFPCm7XItpFX8T94ld9i/YF+N19TtK9Q8J1dXX8Uwroo3pVaOyLV6I93REbadzzc8mHVzTk/BVcyAMJE3poUcnmibRWvzoQMXE8mOXX9FahZsk3Fan1pSpTfXTdw2uygAi9THnQPKMganLwSkZKnLO9/mBbGn4qmtTj4GqdDXPiy5BmjiaMMxnfM8gJF6dCkj+gzlQDiShkPUYG4tOJgyqGVWpXD5KII3Elca9/YZLB9vWucrX420NbqahuUdSdTnKmmVqY4MkgIJfTchmBCFtczevGCWa5Clxly+1f2tMwnZ5jcpQsfWW25zqTkf74tUXz4oDkMyGM61MswJ6/mCkDQ1WTVGY9IdcrGXgqbPOacpEGD6LalOLGYiYX4nhgkHQNFRo8zLDSRtb8+5h+0c0ksr1A2+fu/w9cwBlMl3uMRWHPBqsL0kFkO+44bLGgBapHgJQ8JjOrRlkUAMBFvzb8tF3qOJIG5pXyk+bNpWwZpqh76ORVC5S6orNb88+fvFGNS/oQEz0baOaJsHtP3f/gLYmXU0YOi8nM4kaylb5iXzNho4qc5Uy0NMRMSpoAaApi4ShTGgMgMZGEgaJxQCBFkG5y8pMWqQtEgmJKPe2fPp+HwWoXKQUHeTPL3vXHL7R0TAkSANJI8goyuhm6vZzElA+CAFMZVaVweo6l9SfyFL3yoQCvXBRTU1gibQxy+xSbhlI6qqh9SOtS8P1XRSg0n6QgE5StvLPGo40ljCAzk94UZm4pzM21eXpAPx11WGlPtprH+UiT620oh60FZoDbUncPsqs5adPuCjmVNqz09HFiwRIioCSMHR+DpIUfzGkVwjSjJAh8hmmNFCxXcDBoIf6V5RSw1TnqrL2DioW5zRnp1MBVL8iVe0MNcMBOoCFpHJpeDONdG/nANLKhb9NgaUBZNd+f3Cpd1BpnWbLAAVTNYylogCLsHXzEcIl8ucA0gpguRDAEqugS7yYw/YOKu18yuYSo2EyhorXv2q1JmhtGM2CZ20CI/wSYLkuYTDgVfkJNmVVH4aK3kGlZVqZhHFRNcgHSfXoU3u1WZaGI0/XfEsTGuGHA4lVoqrXVXkaWHpHW62GUpdnW+96B5X2GKmqjlz1vIphrDM1oTLrY5P0RjUufCpT2evqy/xYC5aYjUW9g0pzjFQdcMokWF3D0Winr3T/YBz5sK7iml9dWUb9nSuwaButGqgFXx+GiijWqZp0rrq9QIyUTISLDbBs6ZLs+f26cypIQxaSm5RzvsYVya5dH0QNFB/BYeXZ0IMK/b3K0RQw0KgAC28LARggW3PGiuzpfQdK2w0gYRhxVV9KE0sPZxbstcCinWy8N79mUsVizeFBVXGbPO8dVBzwol2nqqooKlldg/Fe1DYa7Cv5aHjixIlZoEpAquJumOcyuBW1hrLUGQCtoMp9Hm206fzzbEFaed87qDS1sjUEnhYihWzpCcBIkzjM1wRwtrjpfTMO4DKm8b+kXWxk6xO2+G2+791QsWHdWlX96pgIMFwXHQdxcjUvAUrF/iCBfNqpKmON9W/jBf1Iqt5BtV4JKhsTmVvRaIncOcCA9YYP/eXAlatu8HJPub0YMZezd1BtUnyMgKbRHGYpHuntNeVopixmbCxvbTq5otZpDrCxDY4a9ZCW0vat0K3aO6i0biTaxjCBFfNoFrohm6THRkchOiye/Rh+QvGPtADrZdfdMZjHSl6+V225+lijok69Gyq0Fbepf9JAjHJYmmjERP4cEP7hx8cXNvB3tEkQcgOUdHo8V7hqpYpZUtv8WGNON9Pr+r53UFFhxLTNW50GYsSzmVoH6eWdAImlBWLXTI8tP9bkqpYkUAkz/k5SGbC0kkPSsF1Z/K0jU7JWhetL9aM8vat/FELz5UTCafZOEQ6i8ZNlb5oXtv8MVGVgKYsHgIp/ZeF8n9FmtrJopJ/Wquxbzrp4UYBq8x98sK6MM+9oTA1DZyKkGzUHYhiAAJOcW1FXcI1k7MucTrmjABXzKq24Fl2/junpnTsHQuxXc891dgzxE5z9dPavKjV1dqj+LH+UIwpQUZCrP6U7P51RKgELjoUlVEDXzYWhSiASSiMttVt3tAawUHUw04kGVJjWtQ6QjFZymItZmXTfjAN9LKADZM4y1ACK2mnU/w9fMvvU4mZccY8dDagYWbYopRXVxDM9Acu9wW0xXA9vsaVX9R4QMX8CyC4U+3yKukRhUhemMq/SmNcJD3PlO0fahmGUwwOaPVjDvmdHeBb6Krys2k7TND/UTN9tNdr5VJ+qH/xZkG+BONGUUSHjc2TZhe+9yClJVAjpDGURZR5WVB2Il8BVxrFpNYstMkWelYeufsp8CakUYqMnc2kNsB5/ZEd1gTp4Ex2oqDPHQLt+p4rGYwtIcXGYToF7TBXR4FidiJ9oLgfgH36X4iZmLqjLqVIm79AC+IgcfDWfz03Z/QnuUzb1j/nUTTd+wT3xgDGiBBX1+/LNX/P6RCkNybwA1xroT7/07ezZFw4O7qv+AUSNObcqfnrePgdsg6OU4KYbr88+fIlu3VPihL5GCyrUwK0335pLrW58+LBAhR5ZQzfWfE5Pq/r98D/u7fxr9MV2icb6VyzYwBp41ZXq9atifNffTecOrvml8PUcKKp52vbp20hBraKy/hXZDIOuvuqTg8dtf62eOUCifjmAEYLFXQCECm8an4ogKytp3+tTUqaoQSWFbBtYbUyqpex9XemEdE5RacuMCn2VjXwpG2WUD9cVrXoyJyas1oNmS67ZxEBDASoYBbBwvMUqaNsm4sJYAKVx4nRJM4awgIkOW9UheS9Ao7z8Ns9QxIInzwc3J/+ZccznAl55BkhYE4RMi6FG4pCWqTkMk+pHfYcGVBQWdRDrzra77vGyDJKGSaN+4qyoT2ULudNS4jc7fk2+uN7DxyKoRI1zTYvwpiUWcGqAGIvqR/mjNVRQuDKSeRZWHpxwtf6CxbT+5s8+NGs0LL4fld8Aa5jW4SirKaW0DrSbe/b3M/vL0IFKCi/guuMbtw2kFyOVdvsIaTyx61lJauSvdFKWDIoL47FVfNrDZfb3rYpzrbIyi3tb2bs+ng2V+lfGIMC1IV/skwU/rZuTeAiUpTmqz5ACuAuFcD8KzaMyVVzrML35Eje3ttBlL6Y3tJKqWBH5Dcg0EsucPEvcEFeNK02IfHzTEMNM2TzIN80m8ZCeVVs/xGHalr4MqLZwXb0fOVDBOM2ZF0x+tVYll8YgXZezNFzSLobFssefZiJfjCsqIeCiYxcNDcXwoX8LmKrme8NooBAeDb36JxUxrwNJdctt5qPSexxFzUlxaSCHh9K56RA497bZUclD5huYwsXS51DcQVDqLzxgkIEnZdZC13TLwgMk7bYP7cAUy9qUWd/RBZVZy4r70PMqE0R0Ckbhtmh2XmG+6SQAE4CaC7TUo4pfZWtX03vWpkFEumZ5bTzRSikGT9T92GgkQQWTYbhtkbiNeRWdB4nVtrSSjirSkblcaKdgkWA+nVaA6RNXK6W055r4lKFJnJGcU8EQDcPpkKHnVeao7Tvf0TZo8STX0Mc1a8sRMpyLlNIYpEKWTZvWyIJKe0Y75uWQZKo5AFYO/w+Zh6RVdpIrQOYbUJijRYpJ+GG4Un4NaQZNTTpthBlZUPVlWi+en8exyW11bgDM5L9I5Ee+SC52PQMwAC5zpGL4WH5rAYWEilVKwctoNymGaGjt7uGyhccm+fOtJ5OYm1SZjs1wPvcApe64gKo0AaSoqqZ0rQqved7ECulSj2/mXjQxg2pkDRV0ArzaNfuwvnT7D7J/uenjmn6jCkMnNaUTHQY1sMnkvSpjAIu0EvN6Vbjic8pnlrH43ud3E8OGVg13dUfzqUfTOCOr/sEYrQr4iyefCWqwYI2qSKhjrh2/mEbV77bXxKryLT7HBcqHRD3VxI1xXapY7pEGFZXVTGgnjxzLbtv24yJvvH8jOcpUqrasgeRVtAR6F94z4qAMJfM7W3JI8cHnemwB8/e0ZYzrUsWijzyotMdJ//jhJ4u8afS7qpO35RuIatlE/WpU2Tyy70K3Vu1ji4/sAG9a1rbjjzyoGNk2f9DuxTw1dTz7o8/9UzB+08nLpBUZyHpSsMxOJiR+fKHTtaXHlg0fQLt8rvSmG663FSOa9yMPKjit/f7VQ49OBJ1bVUkryoQq2MYcC4lRZmYnzzaIvFwNMKh8WEi5agi1L2ZrX7EOY9fnVHw4ar9XrliR3ffAg9lEfpZgHXECNjtNP37xxrpg6ncyelf5zP3n9kcHaUk4dcKWgO/e9MbBYaLU5cDBSUto/9dIRldeASSXJQDA9Fc9nzjryqF5ASqYwucqtykO5qQTLlu6JDv3tza48rI0PIDB67uqcwM4vmH7plevyVYuX1qahs9D1qDo8JxKtGBBlu0/eLiyDK7pI51u/uxH8jK/0imqK6BInLnUpgvOyxgYh4VGevHXbAR2BGtPYgJU3/27KyrnRGa6mnvWg3AdqlsXYv6F6hZaapnlI3+ciLmaX3jXfJhaPEV8VUsfQEnZARbz4mExVMwbUGm9K6QhV522PPvxP35Gfja+0qk0JvVR/BKJi0GijtHMrYYBWCMPKiTUpZdfke2aqJ9PlTUm0uOOGy4LJrG0wEJafdrTolZWj76eIREZSKh3KEJqYQmM2XAxsqACTCHOB+wLWHTCYQZXW9ZN+BK7OjiSoHJV9WioOgJYmMddTcdVaWollsQHXG055Eoeoa4sE7DJsG7+GCovwMURdbF5WYwUqFyMET4NG7JzuwKL8pK/fJEQoMdEXYLJrHeMUmtkQBVaOpkNZ96L1ArxWVNGc5tV0MzbvMcKB8AwnfcJsDbVPLO+tvuYjBhDDyrOobjmuuu9DBG2hqp7L+BiHQgJ0oSaWsfIf+Obz8w9Kd7aOsCQSHJOemgVb8HChdmJ48e9WRmLOji0oApliPBuQSNiU4DRUW/5t//Odu553kjV75ayIL0AmXyOxleaoaICnKrP3fiVsD7WwkVj2fFjU/WBat4CrC256b3PAzaHElRIp4/lZvIYiU49LTmmj+Wqk2J02i6PYBbACd/4LSRSR06Ykt/yvsvr2KJF2dSxY95Z9j3PGipQtW2I8G5FS0TpzGYn3v/i4Ux8/yzR5+XrRUuWZEuWnpId2u//uZ++5llDA6qQhoiXr1mXPfe0+2LwvOzdPVb61NWvzBYvGc+enXjKuxQsEnOmRZcUPahCSqfF4+PZWW86J1s8vjTb+YuHG42CXTbSfM2L9lr3mjfm7TU+aK+jk34e96iDP/zevZ2xMer9VHfefU924Xsvsp40q+HWqvVnZq9728YBoAh/2io3D2tNHilMWA4AoheefWbQZgyGtKEP4aJ24fvsG1V90i6LE6WkCimdlq08dSCdipU/Onm40ehXTC/9LufA2nzbyfsXL8z+ePHYIMCefM8a9N1jx7OvH7Gbz5FSDIZCe3ft9FYHOYnppg72ZkUHqlCWPRpj9fqzMvTyKvr13mey3U9MbxSsCiPPUSE2nX9edqdiT5bEmc/XIpjKeLFj6kT2J4ftVj6kFIOjUJMBkW9Gt21uj0b9m5ZOnw9iKgdIjG51gKKBaCjAp6X1+UbHpt8a1ub1gUULs08s+c3fuWMLMjrqMBBl37Zs8Yx0qiozdSKsjQ7uf2FWEObEvurgVsUnlmZl5vEjCkkVyisCgDCxNUc1G09cpZVslmMQoNzb738w27V7T5B5H2Wlk107Pq0qlZWd0X1H7nXw70ePZ3umNamyYL08A/TXji/KAIuWNNKqToV/Idc2XK2Djz+yQ1s8r3C9gyqUqZxJ7OoNfu5CLpbAqoXFUCD7n+WL1Q1Jh/z60alsz/ETvQMMIH11qfuBx8yxNh+qVwGL86oig1znWWgbbXq29waqUMYIH+lUbJTDB1/MfvmznxQfV/6uAlYxAnWcyC1PXP/1zruyB37yUDHIrN+M9KhNrkTHZNLP5L8PQk0VQ4RP/m8/eLQ2mg1URGae9fhD99emIy9HUlKFMkY0kU7C4MlDB7PJlw4N1qye/9Ueeay6Ai7tfh6WBzgjo458QSVpiuTi2hWdkQ8Ef3/Kony+p1f5imULASrSxPsCrcNGbYPKPku0ldDxPZ2rqd8eIxcTVV91jyJPHT2avfj8vgGg+I3evuLlq7hVE+sfbNVHhQ1BTedIooKhhnVl1NiX4/fGSX8HWPhmKyvrVRp3JaRVDNQpqK659vPW0drGFFnEdTFGFNNEOmFROl7YZrB8hR+w+LIIi4tI4CpqU4cv5gm4UCMxeNg6bDGuz28kYxPpuHahv5Qzy3tEAaouzrboDFRIpyZrPNN69QWNpNPx41OzpJPZINyPLV6c+QCLuEgt6sjAUQcuwtaRLI7WhdG+mzbLV1sSy9IBhMRzseCRDgaTNqloVi/L6+gRuxsT5z+2Te7mGo8S0dmadLSQcydb8QVYR/J5FnMtV2Lg4I/5lrmvR/u5VNf8bOF/opxfAaaiORyAaz0fsED60vR8rD7+kcMvZWgY48uWV2ZzqLCeVRZwY34wZ9vUuqRqAqgupFMZgwHW6a9Y67TeVUwHyYVhArUQ6YUVUEN7AhvwduQfXtDQV3NjQ1E60dmx6hWfl6XHfNBXBVyj6IViUBrMg3NwlZHG4bYLNbxVScUE3ldCdSmdyhoIYK08fVU2tmhxduC5Z8uCqJ4BLv6QXmNjY9nUVL2aNK3+hZljUECN8WN67lWdJ+9ta0kqZgQIxDwYDQKjxCkvWzlQ2UmWRXwNdTGnahdUHi4hYtnDFcWXmDsdfvFAdiy38DWhAbByi+D4KcucV+3L8rUBqixOF89skgiJhXpoAyieHufmA0cbRFuYBLiYZy3Kn4+fsjw7eMC+mRGVvAtqDVQseLpS39KpqryAas1Zr8327n5qYIqvChfieUhDhTYtVM617WBBxZKndRpqaVoMnMen9mcHX7Cf74FDdBfUGqhcCh+TdKoqNyPl6nVnDkbEJupgVfryvEkHkzTauNqkFHk2WQC2lRk1vIqQWseOHql6PfO8CyMFmSmmiDNlauWG9SZz86BPJkxiX3z+ucbqni1vUQeRWq4Lxba05b1Wukj4uqu2k984We979w8tm8s1xpRFNaDSLAzDpy7mU+TTGqiwsmgq0WQVnLkTZlQf0zeV9yUTXKiGMZNtvkTZkUJVwMGip9lMSDqavAhnEoOIRgqacYr3k4d1Sx9dWP4oW6vqHwtt9xU5UPgtLiiuHhJiYi0k1+lPwMU8EJcnJsoh1EJfs3RVxd+fL+TusFgciQtw2E7yiSV4YSwYbC9hjculPLgrERcTOVeRlGtLhm7mcRg2tICt6x+aQZVdv11Rq6DanFdE40Wxd2JndtbKc5zqPHWsmWXPKTNLYJFceGMALt+FY8mG0Vs6pDzzvbpIDyRGEz++aQDWL+L61KMOUKTHoGajruZTlKNkDLEVT/8e9U+jAqITa/Viyb2JyV3SCH0VcCG9ZN7lox6GXAAGnJrdtaF5ETK98aXVKra232j6YagytwoqCrn5Et0pNpya40J04JipCDA8NOpcbMy6oBaFpJdVr+uGzKa1tOoGJs18ivWpruZTMKF1UGlHCI3fltlqCxeOzRw3Zj6P8R6AocKsWveqGQ+AunJq/fXq0uAd6hgHq3wrnysNKyH16wZQjaTqan1KeNw6qBghNJNEDBZaVxMp/PiyarVAwsR2rTMNS1kBQxPTOnEBE38uhgbJP5YrEqpOSmkARV2Y23dJrYPKpVKuKiDSCjeVYaK6UdesBwYDV2DhUU48/PSGGUzwATAhpepIo/oRX6st1eXl8q5V658UhErxZ3OuZeThz2btkXS5YrBo6uNnptf2/bLcQqgZYQEFAPmExUscIE2bvuM7XcmHlww6g/mnYv0vNlO61LcTUJEZBgsbqAiHtHIBlXbkJ+0YiBGYMmvMwABrx9S0t4NpGpe9S00XTWPgh5QBnjDgrFQeaQCgNDzs0pQudekMVFoR7GuwaOKZIczo6krncV0oHnZ1rsjb8aXj2bF8rxe8gLRgknQ0gCKstt9JuiGunYFKDBa2xWAMFo8/tN25bsXzJpwT6DJCbkjIMHOHXyftshaqvNacsWJWuLGx6Wn88wcmM2TwoZNbNuQ6K3DNDw2oMJB1aUqX4nYGKjLcctWVKg8LzQ5OqUC6xs2Bp/cd6K2Afah+VLYT659wlVGjD3Es+afr/OJAX32tU1DRpFoPi/nV/Km2bXCgD9WPenQOqr5GjzYaLaUZLwc0Dgdtlb5zUInBoq0KpXQTB+BA114UJtd7+UAB51fw2dFEiQNtcaDt89Lryt25pKIwyWBR1yTpXVMOdP01+mJ5e5FUFAJpte2uezLOIU+UOBCCA8VTgUOk6ZNGb6CSwgIu+YaTPEvXxAFXDsSk/fQOKlfmpfCJA7FzoJc5VexMSeVLHGjCgQSqJtxLcRMHSjiQQFXClPQocaAJBxKomnAvxU0cKOFAAlUJU9KjxIEmHEigasK9FDdxoIQDCVQlTEmPEgeacCCBqgn3UtzEgRIO/D+3SrfKTv0ZkgAAAABJRU5ErkJggg==;" vertex="1" parent="1">
          <mxGeometry x="426" y="716.44" width="88.36" height="87.11" as="geometry" />
        </mxCell>
        <mxCell id="x4h3SabsL8eu5-XkS7VO-30" style="edgeStyle=orthogonalEdgeStyle;rounded=0;orthogonalLoop=1;jettySize=auto;html=1;entryX=0.25;entryY=1;entryDx=0;entryDy=0;" edge="1" parent="1" source="x4h3SabsL8eu5-XkS7VO-5" target="x4h3SabsL8eu5-XkS7VO-11">
          <mxGeometry relative="1" as="geometry">
            <Array as="points">
              <mxPoint x="39" y="770" />
              <mxPoint x="205" y="770" />
            </Array>
          </mxGeometry>
        </mxCell>
        <mxCell id="x4h3SabsL8eu5-XkS7VO-31" value="2、Create Pull Request" style="edgeLabel;html=1;align=center;verticalAlign=middle;resizable=0;points=[];" vertex="1" connectable="0" parent="x4h3SabsL8eu5-XkS7VO-30">
          <mxGeometry x="0.0943" y="-1" relative="1" as="geometry">
            <mxPoint as="offset" />
          </mxGeometry>
        </mxCell>
        <mxCell id="x4h3SabsL8eu5-XkS7VO-5" value="" style="sketch=0;outlineConnect=0;fontColor=#232F3E;gradientColor=none;fillColor=#232F3D;strokeColor=none;dashed=0;verticalLabelPosition=bottom;verticalAlign=top;align=center;html=1;fontSize=12;fontStyle=0;aspect=fixed;pointerEvents=1;shape=mxgraph.aws4.user;" vertex="1" parent="1">
          <mxGeometry y="790" width="78" height="78" as="geometry" />
        </mxCell>
        <mxCell id="x4h3SabsL8eu5-XkS7VO-14" style="edgeStyle=orthogonalEdgeStyle;rounded=0;orthogonalLoop=1;jettySize=auto;html=1;entryX=0;entryY=0.25;entryDx=0;entryDy=0;" edge="1" parent="1" source="x4h3SabsL8eu5-XkS7VO-6" target="x4h3SabsL8eu5-XkS7VO-3">
          <mxGeometry relative="1" as="geometry">
            <Array as="points">
              <mxPoint x="250" y="545" />
            </Array>
          </mxGeometry>
        </mxCell>
        <mxCell id="x4h3SabsL8eu5-XkS7VO-15" value="7、Collect Sonarqube Data" style="edgeLabel;html=1;align=center;verticalAlign=middle;resizable=0;points=[];" vertex="1" connectable="0" parent="x4h3SabsL8eu5-XkS7VO-14">
          <mxGeometry x="-0.1272" y="-2" relative="1" as="geometry">
            <mxPoint as="offset" />
          </mxGeometry>
        </mxCell>
        <mxCell id="x4h3SabsL8eu5-XkS7VO-16" style="edgeStyle=orthogonalEdgeStyle;rounded=0;orthogonalLoop=1;jettySize=auto;html=1;entryX=0.5;entryY=0;entryDx=0;entryDy=0;" edge="1" parent="1" source="x4h3SabsL8eu5-XkS7VO-6" target="x4h3SabsL8eu5-XkS7VO-4">
          <mxGeometry relative="1" as="geometry" />
        </mxCell>
        <mxCell id="x4h3SabsL8eu5-XkS7VO-17" value="4、Trigger Build" style="edgeLabel;html=1;align=center;verticalAlign=middle;resizable=0;points=[];" vertex="1" connectable="0" parent="x4h3SabsL8eu5-XkS7VO-16">
          <mxGeometry x="-0.3068" y="4" relative="1" as="geometry">
            <mxPoint as="offset" />
          </mxGeometry>
        </mxCell>
        <mxCell id="x4h3SabsL8eu5-XkS7VO-6" value="" style="rounded=1;whiteSpace=wrap;html=1;" vertex="1" parent="1">
          <mxGeometry x="158.5" y="600" width="131.5" height="86" as="geometry" />
        </mxCell>
        <mxCell id="x4h3SabsL8eu5-XkS7VO-2" value="" style="image;html=1;image=img/lib/atlassian/Bitbucket_Logo.svg;" vertex="1" parent="1">
          <mxGeometry x="190" y="621" width="60" height="40" as="geometry" />
        </mxCell>
        <mxCell id="x4h3SabsL8eu5-XkS7VO-9" style="edgeStyle=orthogonalEdgeStyle;rounded=0;orthogonalLoop=1;jettySize=auto;html=1;entryX=0.004;entryY=0.373;entryDx=0;entryDy=0;entryPerimeter=0;" edge="1" parent="1" source="x4h3SabsL8eu5-XkS7VO-5" target="x4h3SabsL8eu5-XkS7VO-6">
          <mxGeometry relative="1" as="geometry">
            <Array as="points">
              <mxPoint x="40" y="632" />
            </Array>
          </mxGeometry>
        </mxCell>
        <mxCell id="x4h3SabsL8eu5-XkS7VO-10" value="1、Push Code&amp;nbsp;" style="edgeLabel;html=1;align=center;verticalAlign=middle;resizable=0;points=[];" vertex="1" connectable="0" parent="x4h3SabsL8eu5-XkS7VO-9">
          <mxGeometry x="-0.1479" y="2" relative="1" as="geometry">
            <mxPoint as="offset" />
          </mxGeometry>
        </mxCell>
        <mxCell id="x4h3SabsL8eu5-XkS7VO-11" value="Bitbucket" style="text;html=1;align=center;verticalAlign=middle;whiteSpace=wrap;rounded=0;" vertex="1" parent="1">
          <mxGeometry x="190" y="661" width="60" height="30" as="geometry" />
        </mxCell>
        <mxCell id="x4h3SabsL8eu5-XkS7VO-19" style="edgeStyle=orthogonalEdgeStyle;rounded=0;orthogonalLoop=1;jettySize=auto;html=1;exitX=1;exitY=0.5;exitDx=0;exitDy=0;entryX=1;entryY=0.5;entryDx=0;entryDy=0;" edge="1" parent="1" source="x4h3SabsL8eu5-XkS7VO-4" target="x4h3SabsL8eu5-XkS7VO-3">
          <mxGeometry relative="1" as="geometry">
            <mxPoint x="610" y="570" as="targetPoint" />
            <Array as="points">
              <mxPoint x="514" y="764" />
              <mxPoint x="610" y="764" />
              <mxPoint x="610" y="571" />
            </Array>
          </mxGeometry>
        </mxCell>
        <mxCell id="x4h3SabsL8eu5-XkS7VO-20" value="5、Run Sonar Analysis&lt;div&gt;Publish to SonarQube ServicService&lt;/div&gt;" style="edgeLabel;html=1;align=center;verticalAlign=middle;resizable=0;points=[];" vertex="1" connectable="0" parent="x4h3SabsL8eu5-XkS7VO-19">
          <mxGeometry x="0.2266" y="4" relative="1" as="geometry">
            <mxPoint x="1" as="offset" />
          </mxGeometry>
        </mxCell>
        <mxCell id="x4h3SabsL8eu5-XkS7VO-23" value="6、Notify Develop of Results" style="text;html=1;align=center;verticalAlign=middle;resizable=0;points=[];autosize=1;strokeColor=none;fillColor=none;" vertex="1" parent="1">
          <mxGeometry x="180" y="808" width="180" height="30" as="geometry" />
        </mxCell>
        <mxCell id="x4h3SabsL8eu5-XkS7VO-25" value="" style="rounded=1;whiteSpace=wrap;html=1;" vertex="1" parent="1">
          <mxGeometry x="699" y="517" width="120" height="310" as="geometry" />
        </mxCell>
        <mxCell id="x4h3SabsL8eu5-XkS7VO-7" value="Cloud" style="ellipse;shape=cloud;whiteSpace=wrap;html=1;align=center;" vertex="1" parent="1">
          <mxGeometry x="719" y="569" width="80" height="60" as="geometry" />
        </mxCell>
        <mxCell id="x4h3SabsL8eu5-XkS7VO-26" value="Cloud" style="ellipse;shape=cloud;whiteSpace=wrap;html=1;align=center;" vertex="1" parent="1">
          <mxGeometry x="719" y="689" width="80" height="60" as="geometry" />
        </mxCell>
        <mxCell id="x4h3SabsL8eu5-XkS7VO-32" style="edgeStyle=orthogonalEdgeStyle;rounded=0;orthogonalLoop=1;jettySize=auto;html=1;exitX=1;exitY=0.75;exitDx=0;exitDy=0;entryX=-0.017;entryY=0.868;entryDx=0;entryDy=0;entryPerimeter=0;" edge="1" parent="1" target="x4h3SabsL8eu5-XkS7VO-25">
          <mxGeometry relative="1" as="geometry">
            <mxPoint x="529.9999999999998" y="789.2325" as="sourcePoint" />
            <mxPoint x="720" y="789.0399999999998" as="targetPoint" />
          </mxGeometry>
        </mxCell>
        <mxCell id="x4h3SabsL8eu5-XkS7VO-33" value="8、Deploy" style="edgeLabel;html=1;align=center;verticalAlign=middle;resizable=0;points=[];" vertex="1" connectable="0" parent="x4h3SabsL8eu5-XkS7VO-32">
          <mxGeometry x="0.0509" y="2" relative="1" as="geometry">
            <mxPoint as="offset" />
          </mxGeometry>
        </mxCell>
      </root>
    </mxGraphModel>
  </diagram>
</mxfile>
